<?xml version="1.0" standalone="no"?><!DOCTYPE svg PUBLIC "-//W3C//DTD SVG 1.1//EN" "http://www.w3.org/Graphics/SVG/1.1/DTD/svg11.dtd"><svg t="1631601755344" class="icon" viewBox="0 0 1024 1024" version="1.1" xmlns="http://www.w3.org/2000/svg" p-id="7526" data-darkreader-inline-fill="" xmlns:xlink="http://www.w3.org/1999/xlink" width="64" height="64"><defs><style type="text/css"></style></defs><path d="M64.279825 895.44035H0.3198V95.940037a95.940037 95.940037 0 0 1 95.940038-95.940037h671.580262v799.500312h-63.960025V63.960025H96.259838a31.980012 31.980012 0 0 0-31.980013 31.980012z" p-id="7527"></path><path d="M192.199875 384.07995h383.76015v63.960025H192.199875zM320.119925 255.8401h127.60025v63.960025H320.119925zM927.740162 1023.3604a95.940037 95.940037 0 0 1-95.940037-95.940038V150.625859l95.940037-143.910056 95.940038 143.910056V927.420362a95.940037 95.940037 0 0 1-95.940038 95.940038zM895.76015 170.133666V927.420362a31.980012 31.980012 0 0 0 63.960025 0V170.133666l-31.980013-47.970018zM767.8401 1023.3604H128.23985a127.92005 127.92005 0 1 1 0-255.8401h639.60025zM128.23985 831.480325a63.960025 63.960025 0 0 0 0 127.92005h575.640225v-127.92005z" p-id="7528"></path><path d="M863.780137 768.1599h127.92005v63.960025h-127.92005z" p-id="7529"></path></svg>