<?xml version="1.0" standalone="no"?><!DOCTYPE svg PUBLIC "-//W3C//DTD SVG 1.1//EN" "http://www.w3.org/Graphics/SVG/1.1/DTD/svg11.dtd"><svg t="1631601218433" class="icon" viewBox="0 0 1024 1024" version="1.1" xmlns="http://www.w3.org/2000/svg" p-id="2436" data-darkreader-inline-fill="" xmlns:xlink="http://www.w3.org/1999/xlink" width="200" height="200"><defs><style type="text/css">[data-darkreader-inline-fill] { fill: var(--darkreader-inline-fill)  !important; }
</style></defs><path d="M98.72 526.03l99.2 70.53 172.04-172.04-259.15 67.03C93.92 493.42 86.7 514 98.72 526.03zM599.35 653.9L427.31 825.94l70.53 99.2c12.02 12.02 32.61 4.8 34.49-12.1l67.02-259.14zM943.44 80.43c-37.87-37.87-223.39-6-286.74 57.35l229.39 229.39c63.34-63.35 95.84-248.25 57.35-286.74z" fill="#8C9EFF" p-id="2437" data-darkreader-inline-fill="" style="--darkreader-inline-fill:#001378;"></path><path d="M197.92 596.555l458.774-458.773 229.39 229.39-458.773 458.773z" fill="#E1F5FF" p-id="2438" data-darkreader-inline-fill="" style="--darkreader-inline-fill:#002e45;"></path><path d="M570.678227 453.185876a81.1 81.1 0 1 0 114.690718-114.694722 81.1 81.1 0 1 0-114.690718 114.694722Z" fill="#FFD600" p-id="2439" data-darkreader-inline-fill="" style="--darkreader-inline-fill:#ffda1a;"></path><path d="M628.03 495.32c-26.58 0-51.56-10.35-70.35-29.14-38.78-38.79-38.78-101.9 0-140.69 18.79-18.79 43.77-29.14 70.35-29.14 26.58 0 51.56 10.35 70.33 29.14 18.79 18.79 29.14 43.77 29.14 70.35 0 26.57-10.35 51.55-29.14 70.34-18.79 18.79-43.75 29.14-70.33 29.14z m0-162.21c-16.76 0-32.52 6.52-44.36 18.37-24.46 24.46-24.46 64.26 0 88.72 23.69 23.68 65.02 23.72 88.71 0 24.46-24.46 24.46-64.26 0-88.72-11.85-11.84-27.59-18.37-44.35-18.37z" fill="#313FA0" p-id="2440" data-darkreader-inline-fill="" style="--darkreader-inline-fill:#273280;"></path><path d="M283.85 740.01c23.75 23.75 18.83 67.19-28.67 114.7-47.51 47.51-143.37 57.35-143.37 57.35s9.84-95.86 57.35-143.37c47.51-47.51 90.94-52.43 114.69-28.68z" fill="#FCEE21" p-id="2441" data-darkreader-inline-fill="" style="--darkreader-inline-fill:#b8ac02;"></path><path d="M162.229591 861.631168a20.28 81.1 44.999 1 0 114.690718-114.694721 20.28 81.1 44.999 1 0-114.690718 114.694721Z" fill="#FFFF00" p-id="2442" data-darkreader-inline-fill="" style="--darkreader-inline-fill:#ffff1a;"></path><path d="M216.541199 807.312902a10.14 40.55 44.999 1 0 57.345359-57.347361 10.14 40.55 44.999 1 0-57.345359 57.347361Z" fill="#FFFFFF" p-id="2443" data-darkreader-inline-fill="" style="--darkreader-inline-fill:#e8e6e3;"></path><path d="M374.03 917.5c-31.67 31.67-99.71 42.37-99.71 42.37s10.69-68.04 42.37-99.71 56.49-30.82 72.33-14.98c15.83 15.82 16.68 40.65-14.99 72.32zM106.37 649.83C74.69 681.51 64 749.55 64 749.55s68.04-10.69 99.71-42.37 30.82-56.49 14.98-72.33c-15.83-15.83-40.65-16.69-72.32 14.98z" fill="#FCEE21" p-id="2444" data-darkreader-inline-fill="" style="--darkreader-inline-fill:#b8ac02;"></path></svg>