<?xml version="1.0" standalone="no"?><!DOCTYPE svg PUBLIC "-//W3C//DTD SVG 1.1//EN" "http://www.w3.org/Graphics/SVG/1.1/DTD/svg11.dtd"><svg t="1632827463584" class="icon" viewBox="0 0 1024 1024" version="1.1" xmlns="http://www.w3.org/2000/svg" p-id="5123" data-darkreader-inline-fill="" xmlns:xlink="http://www.w3.org/1999/xlink" width="200" height="200"><defs><style type="text/css">[data-darkreader-inline-fill] { fill: var(--darkreader-inline-fill)  !important; }
</style></defs><path d="M314.5 429.6V296.9c-62.3 7.8-109.9 60.9-109.9 124.6 0 69.3 56.4 125.7 125.7 125.7 63.7 0 116.8-47.6 124.6-109.9H323.6c-0.4 0.1-0.7 0.2-1.1 0.2-4.4 0.1-8-3.4-8-7.9z" fill="#A0D3F8" p-id="5124" data-darkreader-inline-fill="" style="--darkreader-inline-fill:#084069;"></path><path d="M880 160H528V96c0-8.8-7.2-16-16-16s-16 7.2-16 16v64H144c-26.5 0-48 21.5-48 48v416c0 26.5 21.5 48 48 48h324.1L210.8 888.1c-6.8 5.7-7.6 15.8-2 22.5 3.2 3.8 7.7 5.7 12.3 5.7 3.6 0 7.3-1.2 10.3-3.8L496 690.3V928c0 8.8 7.2 16 16 16s16-7.2 16-16V690.3l264.6 222.2c3 2.5 6.7 3.8 10.3 3.8 4.6 0 9.1-1.9 12.3-5.7 5.7-6.8 4.8-16.9-2-22.5L555.9 672H880c26.5 0 48-21.5 48-48V208c0-26.5-21.5-48-48-48z m16 464c0 8.8-7.2 16-16 16H144c-8.8 0-16-7.2-16-16V208c0-8.8 7.2-16 16-16h736c8.8 0 16 7.2 16 16v416z" fill="#108EE9" p-id="5125" data-darkreader-inline-fill="" style="--darkreader-inline-fill:#0d72ba;"></path><path d="M471.3 426.5c-0.2-0.4-0.5-0.8-0.7-1.2-0.3-0.5-0.5-1-0.9-1.4-0.3-0.3-0.7-0.5-1-0.8-0.5-0.4-0.9-0.7-1.5-1-0.4-0.2-0.9-0.2-1.3-0.3-0.5-0.1-1-0.4-1.5-0.4H330.5V288v-0.2-0.2c0-0.4-0.2-0.8-0.3-1.2-0.1-0.6-0.2-1.1-0.4-1.6-0.2-0.4-0.5-0.8-0.8-1.2-0.3-0.5-0.6-0.9-1-1.3s-0.8-0.6-1.3-0.9c-0.4-0.3-0.8-0.6-1.3-0.7-0.5-0.2-1.1-0.3-1.7-0.3-0.4-0.1-0.8-0.2-1.2-0.2h-0.4c-74.8 4.3-133.4 66.5-133.4 141.5 0 78.2 63.6 141.7 141.7 141.7 75 0 137.2-58.6 141.5-133.4v-0.2-0.2c0-0.7-0.2-1.1-0.3-1.5-0.1-0.5-0.1-1.1-0.3-1.6z m-141 120.8c-69.3 0-125.7-56.4-125.7-125.7 0-63.7 47.6-116.8 109.9-124.6v132.7c0 4.4 3.6 8 8 8 0.4 0 0.7-0.2 1.1-0.2H455c-7.9 62.2-61 109.8-124.7 109.8z" fill="#108EE9" p-id="5126" data-darkreader-inline-fill="" style="--darkreader-inline-fill:#0d72ba;"></path><path d="M360 273.9c-4.4 0-8 3.6-8 8V392c0 4.4 3.6 8 8 8h110.1c4.4 0 8-3.6 8-8 0-65.1-53-118.1-118.1-118.1z m8 110.1v-93.8c50 3.9 89.9 43.9 93.8 93.8H368zM792 432H568c-4.4 0-8 3.6-8 8s3.6 8 8 8h224c4.4 0 8-3.6 8-8s-3.6-8-8-8zM792 368H568c-4.4 0-8 3.6-8 8s3.6 8 8 8h224c4.4 0 8-3.6 8-8s-3.6-8-8-8zM680 496H568c-4.4 0-8 3.6-8 8s3.6 8 8 8h112c4.4 0 8-3.6 8-8s-3.6-8-8-8zM792 304H568c-4.4 0-8 3.6-8 8s3.6 8 8 8h224c4.4 0 8-3.6 8-8s-3.6-8-8-8z" fill="#108EE9" p-id="5127" data-darkreader-inline-fill="" style="--darkreader-inline-fill:#0d72ba;"></path></svg>